<svg xmlns="http://www.w3.org/2000/svg" viewBox="0 0 1600 900" role="img" aria-labelledby="title desc">
  <title id="title">Philo Atlas Turkish interface preview</title>
  <desc id="desc">Turkish localized profile panel with translated labels and timeline.</desc>
  <rect width="1600" height="900" fill="#dfe7e8"/><path d="M0 200 300 110l230 110 240-105 280 135 250-80 300 150v580H0Z" fill="#cbd5d7"/><path d="M0 450 270 330l230 150 270-85 290 120 280-110 250 90v405H0Z" fill="#d3ddde"/>
  <g fill="#f6f3e9" stroke="#c3cecf" stroke-width="4"><path d="M80 210 290 110l170 90-45 170-210 40-145-105Z"/><path d="M530 150 760 100l190 130-90 180-235-10-105-145Z"/><path d="M1050 150 1330 110l180 180-155 160-240-60-55-135Z"/></g>
  <g font-family="Arial,sans-serif"><rect x="35" y="35" width="370" height="108" rx="22" fill="#26342d"/><circle cx="85" cy="89" r="24" fill="none" stroke="#c99b34" stroke-width="2"/><text x="77" y="100" fill="#d4a63b" font-size="28">Φ</text><text x="125" y="82" fill="#fffdf5" font-size="29" font-weight="700">Philo Atlas</text><text x="125" y="111" fill="#bdc4bb" font-size="13" letter-spacing="2">FİKİRLER, KİŞİLER VE KOORDİNATLAR</text><rect x="1190" y="38" width="360" height="775" rx="28" fill="#f8f1df"/><rect x="1190" y="38" width="360" height="170" rx="28" fill="#5b6b65"/><text x="1225" y="190" fill="#d8af46" font-size="14" font-weight="700">FİLOZOF</text><text x="1225" y="275" fill="#202c27" font-size="34" font-family="Georgia,serif" font-weight="700">Diyojen</text><text x="1225" y="309" fill="#356a52" font-size="17" font-weight="700">MÖ 400 — MÖ 323</text><text x="1225" y="365" fill="#6f766d" font-size="12" font-weight="700" letter-spacing="2">ÖZET</text><text x="1225" y="400" fill="#36403a" font-size="16">Kaynaklandırılmış kısa özet,</text><text x="1225" y="426" fill="#36403a" font-size="16">Türkçe olarak burada gösterilir.</text><line x1="1225" y1="465" x2="1510" y2="465" stroke="#d8d1c0"/><text x="1225" y="505" fill="#6f766d" font-size="12" font-weight="700">DOĞUM YERİ</text><text x="1225" y="532" fill="#202c27" font-size="16" font-weight="700">Sinop</text><rect x="1225" y="580" width="220" height="42" rx="21" fill="#356a52"/><text x="1250" y="607" fill="white" font-size="15" font-weight="700">Haritada yolculuğu göster</text><rect x="450" y="740" width="690" height="115" rx="24" fill="#f8f1df"/><text x="485" y="780" fill="#356a52" font-size="15" font-weight="700" letter-spacing="2">ZAMANDA YOLCULUK</text><text x="485" y="806" fill="#687168" font-size="14">MÖ 370 yılında yaşayan 10 filozof</text><text x="995" y="793" fill="#202c27" font-size="28" font-family="Georgia,serif" font-weight="700">MÖ 370</text><line x1="490" y1="835" x2="1090" y2="835" stroke="#356a52" stroke-width="8" stroke-linecap="round"/><circle cx="600" cy="835" r="12" fill="#356a52"/></g>
  <g fill="#356a52" stroke="#f8f1df" stroke-width="7"><circle cx="700" cy="360" r="23"/><circle cx="820" cy="290" r="23"/><circle cx="950" cy="430" r="23"/><circle cx="1020" cy="320" r="23"/></g>
</svg>
